<?xml version="1.0" encoding="utf-8"?>
<!-- Designed by Vexels.com - 2020 All Rights Reserved - https://vexels.com/terms-and-conditions/  -->
<svg version="1.1" id="Layer_1" xmlns="http://www.w3.org/2000/svg" xmlns:xlink="http://www.w3.org/1999/xlink" x="0px" y="0px"
	 viewBox="0 0 1200 1200" enable-background="new 0 0 1200 1200" xml:space="preserve">
<g>
	<path fill="none" d="M286.469,919.459c0-0.005,0.002-0.01,0.002-0.016c-0.334-0.405-0.489-0.747-0.495-1.035
		C285.978,918.701,286.131,919.048,286.469,919.459z"/>
	<path fill="#221E1F" d="M279.346,858.461c-0.1,0.049-0.188,0.092,0-0.003c0,0,0,0,0-0.001c-1.899-12.151,3.007-14.966,4.671-29.704
		c0.597-5.237,2.517-10.412,3.221-15.628c0.533-4.099,0.704-9.48,0.128-13.455c-17.042-1.801-32.335-8.425-45.709-18.816
		c0.299,4.554-0.854,9.066-0.747,13.662c0.128,4.782,0.299,8.011,1.088,14.055c-0.064,0.103,0.32,2.153,0.128,4.326
		c0.96,6.127-1.856,7.68-4.949,12.213c-1.835,2.691-1.216,3.498-1.664,6.044c-0.555,3.271-0.853,2.939-3.221,5.071
		c-1.6,1.428-3.071,2.443-4.287,4.202c-1.088,1.573-2.474,3.912-1.728,5.423c0.854,1.697,6.165,2.132,6.698,4.057
		c1.066,3.85-3.157,0.186-4.394-0.538c-1.429-0.931-5.994-1.097-7.892-1.076c-6.591,0.041-12.051,4.595-17.682,7.1
		c-6.591,2.939-13.502,5.63-14.589,13.579c-1.109,7.99,4.565,6.231,10.729,7.307c-0.299-2.836-0.789-11.074,3.477-11.467
		c3.412-0.331-0.192,5.092-0.469,7.079c-1.003,7.141,3.519,4.761,10.259,6.872c-1.365-2.67-2.9-14.697,3.285-13.786
		c4.285,0.641-0.91,1.035-1.577,5.313c-0.001,0.003-0.001,0.005-0.002,0.007c-1.045,14.2,12.094,11.84,19.005,12.275
		c0.021,0,0.043-0.021,0.063-0.021c8.575-2.381,17.106-5.071,25.51-7.887C267.209,871.81,280.815,869.181,279.346,858.461z"/>
	<path fill="#221E1F" d="M289.8,917.036c-0.108,0.045-0.835,0.172-1.582,0.482C288.984,917.202,289.723,917.078,289.8,917.036z"/>
	<path fill="#221E1F" d="M299.95,883.297c-0.012,0.077-0.046,0.149-0.064,0.224c0.019-0.077,0.053-0.151,0.066-0.23
		c0.012-0.075,0.027-0.15,0.041-0.226C299.979,883.144,299.964,883.222,299.95,883.297z"/>
	<path fill="#221E1F" d="M865.122,747.323c-8.916-5.547-16.104-9.542-25.766-13.786c1.706,7.286,2.73,11.281,2.837,19.126
		c0.107,6.5,0.15,13.351-1.173,19.768c-2.133,10.205-7.998,21.61-15.826,28.751c-7.529,6.851-17.768,10.184-22.993,19.478
		c-1.493,2.65-4.031,12.088,1.92,10.246c2.922-0.89,2.325-4.533,4.053-7.058c0.683-0.994,7.806-8.094,7.295-3.457
		c-0.32,3.146-7.785,2.401-6.506,10.577c0.171,1.18,6.655,1.863,7.785,1.987c4.821,0.538,2.816,0.041,4.415-4.864
		c1.237-3.767,2.56-4.119,4.991-6.996c1.13-1.325,0.981-1.552,3.498-2.008c1.45-0.269,1.6,0.476,1.6,0.538
		c0.256,1.801-4.181,3.871-5.204,5.009c-1.451,1.635-2.88,4.699-2.794,6.934c0.086,2.401-0.427,2.691,1.749,3.933
		c6.015,3.477,25.532-6.024,30.374-8.59c8.745-4.637,22.929-6.81,23.142-19.126c-0.789-5.734-2.09-10.432-2.197-16.27
		c-0.192-11.343,2.816-22.645,5.972-33.492C882.164,756.659,868.023,749.124,865.122,747.323z"/>
	<path fill="#221E1F" d="M298.756,886.03c0.002-0.001,0.004-0.002,0.007-0.003c0.099-0.27,0.231-0.534,0.371-0.798
		C298.992,885.493,298.857,885.759,298.756,886.03z"/>
	<g>
		<path fill="none" d="M154.345,458.811c0.402,0.841,0.984,1.639,1.66,2.328c0.066,0.066,0.129,0.135,0.197,0.199
			c0.121,0.117,0.247,0.227,0.374,0.335c0.104,0.089,0.209,0.175,0.317,0.258c0.112,0.087,0.224,0.174,0.339,0.254
			c0.154,0.108,0.311,0.206,0.47,0.301c0.077,0.046,0.153,0.099,0.231,0.142c0.237,0.13,0.477,0.242,0.717,0.338
			c0.073,0.029,0.147,0.05,0.221,0.076c0.177,0.063,0.355,0.117,0.531,0.158c0.084,0.02,0.167,0.035,0.251,0.05
			c0.173,0.03,0.345,0.047,0.514,0.054c0.074,0.003,0.15,0.01,0.224,0.009c0.239-0.005,0.473-0.027,0.7-0.084c0,0,0,0,0.001,0
			c0.225-0.045,0.428-0.115,0.619-0.198c0.048-0.02,0.092-0.044,0.137-0.066c0.159-0.079,0.308-0.168,0.443-0.272
			c0.02-0.015,0.041-0.028,0.061-0.044c0.327-0.267,0.584-0.602,0.773-0.99v0c1.863-3.817-2.753-12.638-8.012-8.217
			c-0.882,0.742-1.281,1.654-1.356,2.618c-0.07,0.897,0.156,1.842,0.585,2.742L154.345,458.811z"/>
		<path fill="none" d="M133.741,454.322c-0.023,0.285-0.015,0.568,0.02,0.847c0.009,0.07,0.034,0.136,0.046,0.205
			c0.036,0.207,0.073,0.413,0.138,0.613c0.03,0.095,0.079,0.183,0.115,0.276c0.066,0.168,0.127,0.339,0.211,0.5
			c0.059,0.113,0.135,0.216,0.202,0.324c0.081,0.133,0.154,0.269,0.247,0.395c0.096,0.132,0.21,0.251,0.317,0.375
			c0.079,0.091,0.15,0.189,0.235,0.276c0.147,0.151,0.309,0.286,0.469,0.421c0.057,0.047,0.108,0.102,0.165,0.147
			c0.207,0.162,0.425,0.307,0.648,0.439c0.017,0.01,0.033,0.024,0.05,0.034c2.182,1.271,4.983,1.081,6.06-2.193v0.001
			c0.01-0.031,0.025-0.054,0.035-0.086C145.348,450.128,134.379,446.241,133.741,454.322z"/>
		<path fill="none" d="M247.122,363.003c0.017,0.036,0.036,0.07,0.053,0.106c0.097-2.838-0.714-5.71-2.097-8.262
			c-1.368-2.576-3.362-4.816-5.698-6.598c-2.371-1.737-5.061-3.015-7.887-3.659c-2.81-0.662-5.754-0.757-8.506-0.073
			c2.752,0.644,5.316,1.413,7.743,2.44c2.41,1.047,4.697,2.288,6.733,3.851c1.985,1.455,3.739,3.214,5.317,5.156
			c-1.23-0.652-2.712-1.211-4.545-1.621c-4.778-1.093-10.022-0.318-18.106,2.317c-0.433,0.141-5.479,3.312-5.654,3.684
			c-1.098,1.418-1.96,2.92-2.546,4.433c-0.906,2.317-1.22,4.685-0.827,6.856c0.466,2.133,1.311,4.186,2.942,5.751
			c0.655,0.876,1.727,1.477,2.596,2.185c1.005,0.613,2.109,1.136,3.227,1.613c-0.648-0.869-1.438-1.601-2.094-2.409l-0.926-1.236
			l-0.476-0.6l-0.372-0.654c-0.243-0.437-0.494-0.865-0.768-1.28l-0.562-1.361c-0.222-0.438-0.361-0.906-0.474-1.383
			c-0.106-0.478-0.31-0.926-0.323-1.431c-0.404-1.921-0.244-3.995,0.169-6.108c0.041-0.196,0.1-0.395,0.148-0.592
			c0.744,3.262,3.497,6.615,5.273,8.405C229.436,382.589,246.299,371.948,247.122,363.003z M227.969,358.901
			c0,0,1.167-1.476,4.067-1.228c2.899,0.247,3.685,1.95,3.685,1.95c0.859,2.26-0.4,4.98-2.814,6.074
			c-2.414,1.095-5.067,0.151-5.926-2.109C226.38,362.009,226.83,360.218,227.969,358.901z M242.971,365.243
			c-1.11,6.442-14.26,10.117-20.103,5.735c-8.792-6.594-3.799-11.69,3.512-13.305c-1.611,1.862-2.248,4.397-1.398,6.629
			c1.216,3.197,4.968,4.532,8.382,2.983c3.414-1.549,5.195-5.396,3.98-8.592c-0.111-0.292-0.265-0.552-0.417-0.812
			c1.469,0.434,2.806,1.059,3.903,1.901C240.831,359.782,243.512,361.541,242.971,365.243z"/>
		<path fill="none" d="M211.245,693.732c-0.964-1.71-1.711-3.523-2.129-5.397c-0.432-1.867-0.576-3.838-0.771-5.884
			c-0.186-2.033-0.499-4.219-1.284-6.27c-0.753-2.038-1.774-3.898-2.809-5.68c-2.157-3.513-4.137-6.876-5.835-10.499
			c-3.444-7.169-5.718-14.87-6.825-22.768c-1.014-7.912-0.815-16.014,0.583-24.041c-2.601,7.716-3.689,16.043-3.057,24.297
			c0.628,8.254,2.876,16.385,6.41,23.883c1.792,3.714,3.965,7.344,6.135,10.701c1.067,1.686,2.065,3.372,2.786,5.122
			c0.719,1.731,1.101,3.585,1.42,5.573c0.326,1.975,0.563,4.069,1.225,6.12c0.65,2.048,1.627,3.956,2.826,5.682
			c2.472,3.402,5.683,6.143,9.282,8.056C216.007,700.116,213.133,697.204,211.245,693.732z"/>
		<path fill="#221E1F" d="M240.831,359.782c-1.097-0.842-2.435-1.468-3.903-1.901c0.152,0.26,0.305,0.52,0.417,0.812
			c1.215,3.197-0.566,7.043-3.98,8.592c-3.414,1.549-7.166,0.213-8.382-2.983c-0.85-2.233-0.213-4.767,1.398-6.629
			c-7.311,1.615-12.304,6.711-3.512,13.305c5.842,4.382,18.992,0.707,20.103-5.735C243.512,361.541,240.831,359.782,240.831,359.782
			z"/>
		<path fill="#221E1F" d="M209.577,496.033c14.76-2.981,26.257-11.343,37.838-20.265c8.639-6.624,18.514-11.695,26.79-18.754
			c8.084-6.438,12.542-20.554,17.277-29.559c4.97-9.46,9.47-18.34,11.07-28.938c1.984-12.978,0.064-25.978-5.439-37.921
			c-2.73-5.941-5.46-12.709-0.022-18.112c3.925-3.892,10.537-4.947,15.827-5.568c-3.05-5.672-6.292-10.536-10.132-15.649
			c-7.06-9.377-12.222-20.141-22.46-26.868c-14.888-9.77-31.93-8.714-48.781-12.192c-17.554-3.622-40.739-0.931-57.995,4.119
			c-8.66,2.546-15.912,7.348-23.739,11.55c-4.885,2.608-13.523,5.237-17.149,9.46c-2.624,3.064-0.832,5.03-0.619,9.294
			c0.214,4.016,0.217,8.314,0.085,12.337c-0.16,4.876-1.317,6.875-2.433,7.655c-2.151,1.503-3.237,3.28-4.192,5.679
			c-0.948,2.379-2.232,5.277-2.589,6.578c-0.896,3.27-0.256,2.339-0.277,4.285c-0.043,5.941,0.32,12.668,1.088,18.774
			c1.215,9.563,4.138,17.905,3.263,27.737c-0.341,3.788-0.981,7.431-0.405,10.888c0.747,4.637,2.346,8.797,2.475,13.641
			c9.851-16.807,19.351-33.788,24.303-52.26c-0.497,0.389-1.013,0.754-1.552,1.083c-2.054,1.185-4.282,2.14-6.605,2.407
			c-1.137,0.27-2.311,0.164-3.446,0.224c-1.141-0.066-2.272-0.238-3.374-0.447c1.127-0.268,2.23-0.381,3.312-0.605l1.605-0.38
			l0.797-0.172l0.774-0.256c0.514-0.173,1.027-0.338,1.542-0.483l1.478-0.632c0.502-0.185,0.975-0.427,1.441-0.688
			c0.461-0.265,0.96-0.464,1.384-0.79c1.269-0.74,2.419-1.665,3.501-2.681c0.023-0.099,0.045-0.199,0.068-0.298
			c-4.828,2.533-11.701,3.429-16.425,1.828c-6.669-2.261-13.279-12.883-6.22-18.908c6.821-5.861,19.625-0.411,24.535,4.603
			l-3.465-20.637c1.728-6.251,5.375,4.947,5.759,6.665c1.003,4.326,1.173,8.362,0.832,12.813
			c-0.832,10.391-1.941,20.865-6.356,30.49c-8.34,18.174-19.303,35.437-27.451,53.404c1.39-1.506,2.743-2.859,4.114-4.065
			c-0.502,0.341-1.013,0.673-1.483,1.048c0.632-0.685,1.325-1.315,2.043-1.918c3.828-3.219,8.846-5.239,14.623-5.933
			c2.929-0.352,6.029-0.4,9.298-0.032c3.596,0.404,7.175,0.991,10.644,1.902c7.405,3.783,14.27,6.851,16.85,12.738
			c0.538,1.229,0.878,2.589,1.01,4.096c5.915,15.573-11.943,32.637-28.602,35.344c16.68,3.519,33.743,9.335,50.956,5.216
			c7.679-1.842,13.673-6.644,19.581-11.467c2.581-2.111,12.755-9.025,6.207-1.387c-10.686,12.399-27.43,17.884-43.555,16.787
			c-9.151-0.6-17.768-2.65-26.599-4.802c-6.547-1.594-11.688-3.892-17.98-5.403C160.924,497.068,186.029,500.773,209.577,496.033z
			 M219.459,372.536c-1.776-1.789-4.529-5.142-5.273-8.405c-0.047,0.197-0.106,0.396-0.148,0.592
			c-0.413,2.113-0.573,4.187-0.169,6.108c0.013,0.505,0.217,0.953,0.323,1.431c0.113,0.477,0.253,0.945,0.474,1.383l0.562,1.361
			c0.274,0.415,0.525,0.844,0.768,1.28l0.372,0.654l0.476,0.6l0.926,1.236c0.657,0.808,1.446,1.539,2.094,2.409
			c-1.118-0.477-2.222-1.001-3.227-1.613c-0.869-0.709-1.942-1.309-2.596-2.185c-1.631-1.565-2.476-3.618-2.942-5.751
			c-0.392-2.17-0.079-4.539,0.827-6.856c0.585-1.514,1.448-3.015,2.546-4.433c0.175-0.372,5.222-3.543,5.654-3.684
			c8.084-2.636,13.329-3.41,18.106-2.317c1.833,0.41,3.315,0.969,4.545,1.621c-1.578-1.942-3.332-3.702-5.317-5.156
			c-2.036-1.563-4.323-2.804-6.733-3.851c-2.427-1.027-4.991-1.796-7.743-2.44c2.753-0.684,5.696-0.59,8.506,0.073
			c2.826,0.643,5.516,1.922,7.887,3.659c2.336,1.782,4.331,4.022,5.698,6.598c1.383,2.552,2.194,5.424,2.097,8.262
			c-0.017-0.036-0.036-0.07-0.053-0.106C246.299,371.948,229.436,382.589,219.459,372.536z"/>
		<path fill="#221E1F" d="M136.431,351.389c-3.985,1.483-4.795,4.657-4.795,4.657c-2.271,13.544,21.282,15.684,24.404,5.863
			c0.004-0.072,0.005-0.112,0.009-0.184c-0.71-1.426-1.578-2.386-3.511-4.087c-0.695,1.437-1.996,2.779-3.742,3.66
			c-3.384,1.707-7.112,1.045-8.328-1.479c-1.21-2.513,0.529-5.921,3.883-7.636C141.683,351.037,138.957,350.583,136.431,351.389z"/>
		<path fill="#221E1F" d="M124.579,393.799c-0.128-12.42-4.052-24.715-4.735-37.259c-3.796,16.746-3.391,30.718,3.904,46.553
			C124.174,400.008,124.579,396.924,124.579,393.799z"/>
		<path fill="#221E1F" d="M120.462,402.554c-6.079-15.317-8.191-28.358-3.69-44.586c2.069-7.348,4.756-17.139,9.363-23.432
			c0.704-0.952,2.154-0.58,2.517-1.242c1.002-1.904,0.639-4.699,0.682-6.748c0.064-5.134,0.043-10.308-0.554-15.4
			c-1.173,2.298-2.816,1.822-4.159,2.96c-3.456,2.939-5.716,6.852-7.465,10.867c-2.005,4.595-3.754,9.335-5.652,13.972
			c0.17-0.269,0.362-0.538,0.533-0.807c-6.272,16.601-13.63,30.739-11.369,49.037c1.152,9.377,5.311,16.063,11.091,23.432
			c4.778,6.086,10.558,10.37,12.905,18.029c0.533,1.78,1.088,3.581,1.621,5.361C126.157,422.633,124.707,413.297,120.462,402.554z"
			/>
		<path fill="#221E1F" d="M97.512,383.325c-1.77-21.631,10.515-42.682,18.301-62.512c-8.084,7.017-15.954,14.407-23.548,21.921
			c-7.892,7.824-16.722,15.173-24.337,23.245c-8.02,8.487-9.705,20.016-15.357,29.848c-5.076,8.859-1.685,12.647,2.026,21.693
			c3.856,9.405,5.087,19.701,6.427,29.798c0.458-4.042,1.137-8.041,1.752-12.023c0.81-4.917,1.517-9.822,1.828-14.751
			c0.29-4.927,0.029-9.893-1.05-14.796c0.425,1.175,0.84,2.365,1.222,3.57l0.845,3.696l0.448,3.771l0.176,3.796
			c0.072,5.074-0.597,10.1-1.364,15.05l-2.529,14.749c-0.165,1.067-0.311,2.136-0.449,3.206c0.047,0.307,0.09,0.616,0.138,0.923
			c0.875,5.609,2.197,11.074,2.026,16.787c-0.128,5.299-0.896,9.998,1.003,15.152c3.989,10.929,12.413,17.905,24.465,19.044
			c14.141,1.345,21.734-10.557,26.469-21.734c3.839-9.108,6.314-17.615,6.442-27.302c0.064-5.817,0.064-11.737,1.045-17.491
			c-0.768-12.233-7.06-17.884-14.248-27.158C102.14,402.679,98.472,395.082,97.512,383.325z"/>
		<path fill="#221E1F" d="M299.545,358.92c2.773,6.065,4.714,11.923,5.844,18.485c1.685,9.828,0.787,18.997-1.655,27.848
			c0.709-1.529,1.458-3.042,2.252-4.534c0.792-1.494,1.637-2.964,2.556-4.388c0.899-1.397,1.713-2.794,2.415-4.265
			c1.411-2.92,2.417-6.038,2.669-9.215c0.73-6.427-2.861-12.394-4.543-19.015c-0.894-3.325-0.919-6.991,0.191-10.272
			c1.104-3.234,3.689-6.263,7.107-6.793c-3.269,1.024-5.367,3.979-6.107,7.098c-0.831,3.149-0.635,6.448,0.39,9.529
			c0.985,3.115,2.356,6.15,3.51,9.363c1.135,3.191,1.915,6.746,1.577,10.269c-0.321,3.506-1.429,6.866-2.99,9.934
			c-0.785,1.529-1.706,3.003-2.661,4.393c-0.923,1.372-1.829,2.758-2.694,4.172c-3.175,5.25-5.797,10.845-8.253,16.533
			c-0.168,0.391-0.339,0.782-0.512,1.172c-0.031,0.073-0.064,0.145-0.096,0.219c0.002-0.007,0.004-0.013,0.006-0.02
			c-1.799,4.052-3.808,8.074-5.937,12.102c-5.994,11.364-12.648,21.9-16.423,33.885c-2.709,8.611-0.854,16.415-0.619,25.046
			c0.015,0.58,0.042,1.195,0.065,1.8c0.02,0.044,0.045,0.086,0.064,0.129c1.052,2.257,1.631,4.692,2.063,7.089
			c0.864,4.766,1.218,9.678,3.308,13.635c0.523,0.969,1.148,1.877,1.86,2.655c0.672,0.707,1.596,1.364,2.562,1.947
			c1.956,1.166,4.115,2.131,6.312,2.979c4.41,1.669,8.994,3.043,13.618,3.901c2.292,0.415,4.67,0.74,6.789,0.607
			c2.191-0.274,4.65-0.662,6.928-1.12c4.605-0.995,9.091-2.423,13.207-4.621c8.285-4.382,14.593-11.932,19.92-19.964
			c-2.039,4.39-4.486,8.626-7.519,12.496c-3.045,3.846-6.755,7.286-11.056,9.846c-4.319,2.52-9.067,4.249-13.891,5.3
			c-2.453,0.503-4.752,0.956-7.357,1.239c-2.711,0.14-5.152-0.254-7.599-0.701c-4.859-0.961-9.576-2.337-14.148-4.207
			c-2.284-0.939-4.535-1.989-6.701-3.341c-1.078-0.691-2.144-1.443-3.119-2.507c-0.892-1.028-1.597-2.157-2.147-3.348
			c-0.011-0.023-0.018-0.047-0.028-0.07c0.15,0.531,0.288,1.075,0.45,1.591c5.951,18.857,35.706,23.225,52.62,16.56
			c14.546-5.713,26.64-24.136,34.319-36.514c5.61-9.17,10.729-17.843,17.448-26.309c5.759-7.224,11.112-13.786,12.2-23.245
			c2.218-19.209-11.006-35.872-20.881-51.293c-8.852-13.848-20.498-25.957-31.632-38.087
			c-10.579-11.509-20.988-21.465-38.073-15.587C295.556,344.638,295.983,351.075,299.545,358.92z"/>
		<path fill="#221E1F" d="M1147.781,651.464c-1.834,4.119-16.168,14.138-18.578,15.773c-11.923,8.031-22.14,18.36-32.933,27.716
			c-7.679,6.665-20.157,7.638-30.075,8.011c-13.481,0.518-26.065-2.173-38.628-6.996c-33.103-12.71-54.263-28.358-67.849-60.277
			c-7.956-18.671-20.391-47.567-28.56-66.176c-6.74-15.318-13.523-29.083-26.172-40.799
			c-29.157-26.951-72.861-24.694-110.145-21.486c-19.346,1.656-38.585-1.118-57.867-2.132c-19.132-0.994-38.307-2.008-57.44-2.629
			c-39.886-1.242-80.433,1.697-120.085,5.63c-40.569,4.016-56.549,4.326-97.267,3.25c-17.447-0.476-34.788-2.339-52.193-3.436
			c-7.337-0.476-14.632-1.056-21.991-1.325c-1.603-0.057-3.171-0.254-4.72-0.515c5.953,1.855,12.205,3.901,17.016,8.744
			c4.954,4.427,8.728,9.74,12.311,14.937l10.59,15.665c3.499,5.168,7.196,10.477,9.98,16.298c2.854,5.759,4.891,11.894,6.233,18.143
			c2.658,12.513,2.321,25.552-0.767,37.779c0.994-6.227,1.437-12.52,1.199-18.772c-0.236-6.253-1.211-12.442-2.758-18.453
			c-1.571-6.007-3.819-11.82-6.711-17.28c-1.449-2.727-3.016-5.393-4.789-7.916l-5.431-7.698l-10.903-15.439
			c-3.583-5.135-7.241-10.147-11.744-14.106c-2.245-1.972-4.705-3.638-7.336-4.907c-2.659-1.259-5.6-2.19-8.598-3.144
			c-3-0.959-6.091-1.923-9.126-3.343c-0.193-0.091-0.386-0.191-0.579-0.286c2.61,5.001,5.182,10.147,6.717,15.797
			c1.205,4.333,1.752,8.839,1.764,13.297c0.018,2.239-0.14,4.438-0.367,6.671c-0.275,2.283-0.837,4.48-1.552,6.6
			c-2.941,8.467-7.944,15.855-13.61,22.502c-5.71,6.612-12.3,12.537-19.844,16.88c7.198-4.87,13.418-11.016,18.727-17.795
			c5.23-6.809,9.774-14.3,12.293-22.364c0.602-2.014,1.044-4.064,1.215-6.101c0.112-2.094,0.186-4.233,0.105-6.336
			c-0.151-4.217-0.8-8.389-2.055-12.388c-2.149-7.061-6.06-13.481-9.688-20.286c-0.871-0.048-0.822,0.478-2.764,3.257
			c-1.472,2.07-2.922,4.14-4.5,6.127c-3.669,4.554-7.636,8.942-11.966,12.916c-11.432,10.536-26,15.338-41.827,11.985
			c-7.871-1.656-18.066-5.506-23.441-11.613c-5.61-6.396-5.951-15.173-7.38-23.08c-0.846-4.671-1.641-9.612-2.077-14.61
			c-0.269-0.244-0.524-0.5-0.822-0.718c0.274,0.14,0.54,0.295,0.8,0.462c-0.808-9.537-0.269-19.268,3.89-27.733
			c-7.849,6.106-16.595,10.991-24.572,16.87c-7.359,5.423-14.589,11.55-22.908,16.063c-19.922,10.826-47.714,11.178-68.019,1.842
			c0.362,23.639,2.666,47.277,4.138,70.895c1.643,26.475,5.652,52.369,5.631,78.927c0,19.043-1.194,39.08,7.039,56.82
			c10.942,23.618,31.866,39.681,47.97,59.511c12.776,15.711,31.013,29.434,51.361,34.382c8.361,2.029,17.085,2.525,25.66,2.794
			c2.282,0.083,12.712,0.041,13.885-1.987c1.513-2.658-1.804-19.625-2.637-27.306c-0.2-0.699-0.414-1.393-0.658-2.078
			c-1.55-4.524-3.801-8.741-7.119-11.99c-3.242-3.33-7.473-5.609-11.985-7.321c-4.515-1.734-9.333-2.961-14.038-4.649
			c4.968,0.385,9.923,0.916,14.822,2.278c2.462,0.634,4.834,1.639,7.162,2.778c2.255,1.285,4.437,2.775,6.293,4.645
			c1.452,1.454,2.693,3.082,3.743,4.816c-0.736-2.901-1.559-5.773-2.498-8.6c-1.376-3.868-2.782-7.751-5.397-11.094
			c3.593,2.41,5.877,6.345,7.714,10.163c1.837,3.887,3.093,7.988,4.099,12.118c0.177,0.774,0.335,1.551,0.493,2.329
			c0.01,0.023,0.018,0.042,0.028,0.065c0.699,1.704,0.941,3.949,1.051,6.331c0.481,3.616,0.741,7.254,0.757,10.897
			c1.414,7.565,1.811,15.173,0.581,21.997c-1.429,7.866,2.026,9.977-4.138,21.072c-3.178,5.692-2.837,23.701-5.097,29.786
			c-1.557,4.202-0.747,14.076-3.392,21.093c-1.002,2.629-1.813,5.672-3.05,8.383c-0.554,0.166-1.066,0.352-1.557,0.559
			c-0.256,0.124-0.533,0.269-0.683,0.455c-0.067,0.093-0.103,0.196-0.132,0.3c0.03-0.101,0.067-0.201,0.138-0.292
			c0.152-0.195,0.415-0.333,0.678-0.455c0.488-0.225,1.009-0.41,1.55-0.56c0.509-0.141,1.035-0.251,1.573-0.32
			c2.136-0.275,4.331,0.034,6.436,0.411c3.646,0.653,7.218,1.513,10.669,2.569c0.827,0.253,1.809,0.766,1.488,1.361
			c-0.268,0.499-1.222,0.555-1.973,0.508c-2.86-0.178-5.686-0.623-8.382-1.32c-1.905-0.492-3.803-1.117-5.83-1.146
			c-2.403-0.034-4.41,0.765-6.298,1.692c-0.129,0.063-0.253,0.128-0.381,0.192c0.125-0.062,0.249-0.13,0.377-0.189
			c-0.128,0.145-0.235,0.311-0.362,0.456c-2.773,2.919-7.039,6.044-10.345,8.57c-3.968,3.043-9.663,3.643-13.075,7.286
			c-1.856,1.987-7.486,8.425-6.186,11.447c1.131,2.587,8.276,3.85,10.643,2.795c1.173-0.518,6.719-10.412,7.721-5.693
			c0.277,1.238-6.757,6.734,0.639,6.788c0.022-0.002,0.041-0.005,0.064-0.007c0.033,0,0.062,0.001,0.09,0.003
			c3.456-0.254,8.651,0.252,10.639,0.026c1.6-0.165,2.752,0.062,4.075-0.704c1.471-0.828,2.452-5.237,4.841-4.388
			c2.347,0.828-0.063,3.374,1.43,4.513c1.557,1.201,4.245,0.435,6.121,0.373c7.039-0.248,10.964-0.145,16.723-3.954
			c5.695-3.747,10.601-6.334,13.31-12.689c2.389-5.61,2.943-11.074,6.228-16.415c6.399-10.433,9.15-21.734,14.44-32.643
			c4.458-9.211,10.921-17.802,16.168-26.619c6.868-11.55,17.234-21.921,19.325-35.5c1.012-6.579,1.576-12.586,2.94-18.402
			c0,0,0,0,0,0c0,0,0,0,0-0.001c1.224-5.219,3.091-10.284,6.53-15.462c1.404-2.117,2.693-4.227,3.947-6.342l9.111-17.626
			c1.658-3.256,3.353-6.503,4.851-9.783c0.714-1.646,1.511-3.293,1.609-4.65c0.127-1.536-0.13-3.254-0.544-4.923
			c-0.806-3.367-2.213-6.684-3.984-9.745c-0.894-1.53-1.924-2.979-3.112-4.291c-1.208-1.271-2.645-2.421-4.478-2.768
			c1.898-0.21,3.745,0.764,5.28,1.849c1.576,1.108,2.869,2.535,4.058,4.019c2.309,3.029,4.08,6.438,5.181,10.157
			c0.52,1.87,0.878,3.822,0.761,5.954c-0.046,1.066-0.398,2.258-0.761,3.102c-0.357,0.913-0.745,1.764-1.137,2.617
			c-1.597,3.373-3.296,6.634-5.052,9.871c-0.915,1.677-1.863,3.331-2.797,4.995c-0.549,1.96-1.389,4.256-2.287,6.055
			c-5.482,10.929-13.672,19.168-15.954,31.67c-1.216,6.686-0.704,13.537-2.688,20.12c-1.728,5.775-1.292,5.201-4.769,10.086
			c10.43-4.161,15.925-7.621,33.888-13.449c10.187-3.305,22.014-8.828,32.38-11.209c10.729-2.443,15.437-4.015,25.44-8.672
			c9.236-4.306,18.144-5.52,26.065-9.053c19.671-8.774,31.713-14.333,52.812-25.766c40.139-21.749,66.254-28.564,111.601-34.174
			c0-0.372,7.166-0.952,9.47-1.2c8.404-0.911,16.872-1.076,25.318-0.973c16.722,0.186,34.724,1.511,51.021,4.637
			c13.501,2.608,26.512,5.299,38.884,11.323c8.455,4.11,17.24,7.249,25.929,10.666c-2.702-1.443-5.386-2.932-8.013-4.552
			c-3.33-2.04-6.54-4.469-9.468-7.094c-2.899-2.623-5.688-5.374-8.291-8.298c-5.181-5.857-9.825-12.262-13.285-19.315
			c-3.469-7.023-5.878-14.65-6.476-22.479c-0.523-7.816,0.829-15.764,4.227-22.721c-1.356,3.618-2.274,7.372-2.751,11.165
			c-0.46,3.798-0.385,7.637,0.082,11.406c0.894,7.556,3.483,14.835,7.1,21.499c3.66,6.653,8.167,12.837,13.345,18.412
			c2.581,2.794,5.288,5.475,8.136,8.005c2.834,2.504,5.816,4.731,9.079,6.711c12.904,8.075,27.564,13.557,40.443,22.566l2.365,1.758
			l2.269,1.901l2.162,1.8c0.775,0.518,1.497,1.106,2.319,1.573c3.197,1.987,6.693,3.571,10.238,5.02
			c0.288,0.121,0.579,0.234,0.868,0.353c4.194,1.124,8.518,1.945,12.783,3.108c11.561,3.167,24.316,9.418,32.421,18.133
			c8.382,8.984,14.056,22.562,18.535,33.657c5.119,12.73,9.939,25.543,0.277,37.052c-3.626,4.326-8.233,8.611-8.596,14.345
			c-0.576,9.087,4.138,9.004,12.691,8.88c-0.746-2.898-1.258-8.321,0.875-10.826c3.605-4.202,2.005,1.966,1.685,3.891
			c-1.537,9.232,5.076,8.011,12.584,7.265c-2.048-3.457-3.434-17.512,2.816-18.464c3.882-0.6-0.256,5.009-0.533,5.609
			c-1.472,3.229-2.304,7.058-0.469,10.35c2.837,5.113,9.044,2.919,13.864,1.925c7.166-1.511,7.273-3.229,7.166-10.391
			c-0.106-7.224-2.73-13.641-4.18-20.616c-2.154-10.226-2.176-20.306-1.728-30.677c0.661-15.048,5.994-29.89,5.929-44.897
			c-0.021-10.081-1.386-19.188-10.558-25.171c-5.674-3.726-12.072-5.651-16.061-11.488c-3.562-5.216-3.669-11.674-5.268-17.574
			c-2.709-9.894-7.316-19.105-10.686-28.627c-4.138-11.633-8.148-22.769-10.344-35.023c-1.323-7.41-3.477-14.655-5.951-21.796
			c-3.05-8.859-4.863-18.05-8.703-26.64c-0.938-2.07-1.962-4.181-3.071-6.189c-1.6-2.877-5.397-5.734-6.591-8.363
			c-3.157-7.038,4.372-0.021,6.356,2.712c3.178,4.326,5.482,9.646,7.444,14.572c4.885,12.275,8.34,25.709,11.582,38.501
			c2.943,11.654,5.14,23.225,9.363,34.568c1.792,4.844,2.964,12.502,6.25,16.58c2.645,3.312,7.7,5.32,11.369,7.535
			c20.711,12.606,39.737,28.048,65.289,29.145c14.44,0.621,32.591,2.422,46.2-2.981c9.811-3.891,18.428-9.087,26.619-15.566
			c8.787-6.976,17.682-14.469,25.318-22.769c4.543-4.926,14.206-19.25,17.768-26.971
			C1151.236,653.058,1149.402,647.759,1147.781,651.464z M209.92,694.57c-1.199-1.725-2.176-3.634-2.826-5.682
			c-0.662-2.051-0.899-4.145-1.225-6.12c-0.319-1.988-0.7-3.842-1.42-5.573c-0.721-1.75-1.719-3.436-2.786-5.122
			c-2.17-3.357-4.343-6.987-6.135-10.701c-3.534-7.498-5.781-15.629-6.41-23.883c-0.632-8.254,0.456-16.58,3.057-24.297
			c-1.399,8.027-1.598,16.129-0.583,24.041c1.107,7.898,3.381,15.599,6.825,22.768c1.698,3.623,3.678,6.986,5.835,10.499
			c1.036,1.782,2.056,3.642,2.809,5.68c0.786,2.052,1.098,4.237,1.284,6.27c0.195,2.046,0.339,4.017,0.771,5.884
			c0.418,1.874,1.165,3.688,2.129,5.397c1.887,3.472,4.762,6.384,7.956,8.894C215.602,700.714,212.392,697.972,209.92,694.57z"/>
		<path fill="#221E1F" d="M232.907,365.697c2.413-1.095,3.673-3.815,2.814-6.074c0,0-0.786-1.702-3.685-1.95
			c-2.899-0.247-4.067,1.228-4.067,1.228c-1.139,1.317-1.589,3.108-0.988,4.687C227.84,365.848,230.493,366.792,232.907,365.697z"/>
		<path fill="#221E1F" d="M153.825,478.061c14.575-2.368,30.198-17.297,25.023-30.921c-0.115-1.319-0.413-2.508-0.883-3.584
			c-2.257-5.15-8.263-7.835-14.741-11.144c-3.035-0.797-6.167-1.31-9.312-1.664c-2.86-0.321-5.573-0.28-8.135,0.028
			c-5.054,0.607-9.444,2.375-12.793,5.191c-0.628,0.528-1.234,1.079-1.787,1.678c0,0-10.53,11.73-4.421,24.145
			C132.884,474.206,140.872,481.03,153.825,478.061z M155.112,453.442c5.26-4.421,9.875,4.399,8.012,8.217v0
			c-0.189,0.388-0.446,0.723-0.773,0.99c-0.019,0.016-0.041,0.029-0.061,0.044c-0.135,0.104-0.284,0.193-0.443,0.272
			c-0.046,0.023-0.09,0.046-0.137,0.066c-0.191,0.083-0.394,0.153-0.619,0.198c-0.001,0-0.001,0-0.001,0
			c-0.227,0.057-0.461,0.079-0.7,0.084c-0.074,0.001-0.149-0.005-0.224-0.009c-0.17-0.007-0.341-0.024-0.514-0.054
			c-0.084-0.015-0.167-0.03-0.251-0.05c-0.177-0.041-0.354-0.095-0.531-0.158c-0.074-0.026-0.147-0.047-0.221-0.076
			c-0.24-0.096-0.48-0.208-0.717-0.338c-0.078-0.043-0.154-0.096-0.231-0.142c-0.158-0.095-0.315-0.193-0.47-0.301
			c-0.114-0.081-0.227-0.167-0.339-0.254c-0.107-0.083-0.212-0.169-0.317-0.258c-0.127-0.109-0.253-0.219-0.374-0.335
			c-0.068-0.064-0.131-0.132-0.197-0.199c-0.676-0.688-1.258-1.486-1.66-2.328l-0.004-0.009c-0.428-0.9-0.655-1.845-0.585-2.742
			C153.832,455.096,154.23,454.183,155.112,453.442z M142.699,456.898c-0.01,0.032-0.025,0.054-0.035,0.086v-0.001
			c-1.077,3.274-3.878,3.464-6.06,2.193c-0.017-0.01-0.033-0.023-0.05-0.034c-0.223-0.133-0.441-0.278-0.648-0.439
			c-0.057-0.045-0.108-0.099-0.165-0.147c-0.161-0.135-0.322-0.27-0.469-0.421c-0.085-0.087-0.156-0.185-0.235-0.276
			c-0.107-0.124-0.221-0.243-0.317-0.375c-0.093-0.126-0.166-0.263-0.247-0.395c-0.067-0.108-0.143-0.212-0.202-0.324
			c-0.084-0.161-0.144-0.332-0.211-0.5c-0.036-0.093-0.085-0.182-0.115-0.276c-0.065-0.2-0.102-0.406-0.138-0.613
			c-0.012-0.069-0.037-0.136-0.046-0.205c-0.035-0.278-0.043-0.561-0.02-0.847C134.379,446.241,145.348,450.128,142.699,456.898z"/>
		<path fill="#221E1F" d="M142.204,358.826c0.861,1.788,3.502,2.257,5.898,1.048c1.236-0.624,2.158-1.574,2.65-2.592
			c0.147-0.826,0.147-1.256-2.023-2.781c-0.796-0.559-1.515-0.854-2.108-1.003c-1.01-0.254-2.063,0.04-2.863,0.707
			C142.194,355.504,141.506,357.375,142.204,358.826z"/>
	</g>
</g>
</svg>
